# xmcd CD database file
#
# Track frame offsets:
#	150
#	16895
#	27070
#	62464
#	89969
#
# Disc length: 1200 seconds
#
# Revision: 0
# Processed by: cddbd v1.5.1PL2 Copyright (c) Steve Scherf et al.
# Submitted via: CDex 1.51
#
DISCID=3504ae05
DTITLE=camille - LE FIL (EDITION LIMITEE)
DYEAR=2005
DGENRE=Pop
TTITLE0=J'ai tort
TTITLE1=Jolie bruine
TTITLE2=Lumiere
TTITLE3=data
TTITLE4=?
EXTD=YEAR: 2005
EXTT0=
EXTT1=
EXTT2=
EXTT3=
EXTT4=
PLAYORDER=
